name GIL12_xslow1EmgEnv.mot
datacolumns 51
datarows 11
range 1.00925934 1.01851869
endheader
                time	   rect_fem_l_emgRec	   rect_fem_l_emgEnv	   rect_fem_l_emgAve	   rect_fem_l_emgSDp	   rect_fem_l_emgSDm	   rect_fem_r_emgRec	   rect_fem_r_emgEnv	   rect_fem_r_emgAve	   rect_fem_r_emgSDp	   rect_fem_r_emgSDm	   med_hams_l_emgRec	   med_hams_l_emgEnv	   med_hams_l_emgAve	   med_hams_l_emgSDp	   med_hams_l_emgSDm	   med_hams_r_emgRec	   med_hams_r_emgEnv	   med_hams_r_emgAve	   med_hams_r_emgSDp	   med_hams_r_emgSDm	   lat_hams_l_emgRec	   lat_hams_l_emgEnv	   lat_hams_l_emgAve	   lat_hams_l_emgSDp	   lat_hams_l_emgSDm	   lat_hams_r_emgRec	   lat_hams_r_emgEnv	   lat_hams_r_emgAve	   lat_hams_r_emgSDp	   lat_hams_r_emgSDm	    tib_ant_l_emgRec	    tib_ant_l_emgEnv	    tib_ant_l_emgAve	    tib_ant_l_emgSDp	    tib_ant_l_emgSDm	    tib_ant_r_emgRec	    tib_ant_r_emgEnv	    tib_ant_r_emgAve	    tib_ant_r_emgSDp	    tib_ant_r_emgSDm	    gas_sol_l_emgRec	    gas_sol_l_emgEnv	    gas_sol_l_emgAve	    gas_sol_l_emgSDp	    gas_sol_l_emgSDm	    gas_sol_r_emgRec	    gas_sol_r_emgEnv	    gas_sol_r_emgAve	    gas_sol_r_emgSDp	    gas_sol_r_emgSDm	
          1.00925934	          0.04466008	          0.15326696	          0.11897138	          0.11897138	          0.11897138	          0.19600817	          0.18664894	          0.15513234	          0.15513234	          0.15513234	          0.01569929	          0.02412298	          0.00700904	          0.00700904	          0.00700904	          0.00472581	          0.94237765	          0.85388869	          0.85388869	          0.85388869	          0.00520074	          0.07089953	          0.03924131	          0.03924131	          0.03924131	          0.02778556	          0.15663119	          0.16912214	          0.16912214	          0.16912214	          0.02850564	          0.08125004	          0.05376687	          0.05376687	          0.05376687	          0.29842077	          0.52797669	          0.55324966	          0.55324966	          0.55324966	          0.09472310	          0.25802871	          0.29035738	          0.29035738	          0.29035738	          0.03665222	          0.05711063	          0.07234739	          0.07234739	          0.07234739	
          1.01018524	          0.00880674	          0.15302797	          0.11906516	          0.11906516	          0.11906516	          0.10304823	          0.18371349	          0.15380549	          0.15380549	          0.15380549	          0.00407241	          0.02388190	          0.00680569	          0.00680569	          0.00680569	          0.28029445	          0.93714268	          0.85285538	          0.85285538	          0.85285538	          0.02168672	          0.07095545	          0.03915764	          0.03915764	          0.03915764	          0.03060124	          0.15513197	          0.16676477	          0.16676477	          0.16676477	          0.02080657	          0.08179443	          0.05397893	          0.05397893	          0.05397893	          0.07182806	          0.52207134	          0.55337453	          0.55337453	          0.55337453	          0.07146822	          0.25906790	          0.28772113	          0.28772113	          0.28772113	          0.01813415	          0.05597002	          0.07066187	          0.07066187	          0.07066187	
          1.01111126	          0.10212254	          0.15275867	          0.11914704	          0.11914704	          0.11914704	          0.01596091	          0.18078589	          0.15248638	          0.15248638	          0.15248638	          0.00322912	          0.02363411	          0.00660555	          0.00660555	          0.00660555	          0.44079994	          0.93177608	          0.85180658	          0.85180658	          0.85180658	          0.02162698	          0.07096831	          0.03907541	          0.03907541	          0.03907541	          0.00017870	          0.15363121	          0.16441697	          0.16441697	          0.16441697	          0.03190342	          0.08235054	          0.05421432	          0.05421432	          0.05421432	          0.09346064	          0.51619146	          0.55348700	          0.55348700	          0.55348700	          0.00285277	          0.26005555	          0.28508940	          0.28508940	          0.28508940	          0.00762311	          0.05485740	          0.06898391	          0.06898391	          0.06898391	
          1.01203716	          0.16288035	          0.15245668	          0.11921705	          0.11921705	          0.11921705	          0.01036487	          0.17786896	          0.15117550	          0.15117550	          0.15117550	          0.01421291	          0.02337982	          0.00640872	          0.00640872	          0.00640872	          0.23536488	          0.92629122	          0.85074294	          0.85074294	          0.85074294	          0.05556384	          0.07093742	          0.03899459	          0.03899459	          0.03899459	          0.02053762	          0.15213036	          0.16207972	          0.16207972	          0.16207972	          0.02389785	          0.08291632	          0.05447296	          0.05447296	          0.05447296	          0.13761870	          0.51034528	          0.55358690	          0.55358690	          0.55358690	          0.05317955	          0.26098305	          0.28246304	          0.28246304	          0.28246304	          0.00711212	          0.05377481	          0.06731411	          0.06731411	          0.06731411	
          1.01296306	          0.11429071	          0.15211959	          0.11927514	          0.11927514	          0.11927514	          0.00838404	          0.17496555	          0.14987282	          0.14987282	          0.14987282	          0.01371625	          0.02311924	          0.00621519	          0.00621519	          0.00621519	          0.04128179	          0.92070155	          0.84966469	          0.84966469	          0.84966469	          0.04903787	          0.07086221	          0.03891517	          0.03891517	          0.03891517	          0.02398468	          0.15063078	          0.15975282	          0.15975282	          0.15975282	          0.04204674	          0.08348969	          0.05475491	          0.05475491	          0.05475491	          0.06751702	          0.50454086	          0.55367422	          0.55367422	          0.55367422	          0.07300315	          0.26184209	          0.27984202	          0.27984202	          0.27984202	          0.00831272	          0.05272417	          0.06565239	          0.06565239	          0.06565239	
          1.01388896	          0.07526193	          0.15174504	          0.11932126	          0.11932126	          0.11932126	          0.05288686	          0.17207851	          0.14857854	          0.14857854	          0.14857854	          0.00783593	          0.02285256	          0.00602499	          0.00602499	          0.00602499	          0.16051873	          0.91502063	          0.84857148	          0.84857148	          0.84857148	          0.04807309	          0.07074225	          0.03883715	          0.03883715	          0.03883715	          0.02132855	          0.14913378	          0.15743653	          0.15743653	          0.15743653	          0.00638578	          0.08406849	          0.05506015	          0.05506015	          0.05506015	          0.02643427	          0.49878604	          0.55374885	          0.55374885	          0.55374885	          0.10142095	          0.26262467	          0.27722645	          0.27722645	          0.27722645	          0.01445968	          0.05170732	          0.06399893	          0.06399893	          0.06399893	
          1.01481485	          0.07341868	          0.15133067	          0.11935541	          0.11935541	          0.11935541	          0.11276581	          0.16921068	          0.14729273	          0.14729273	          0.14729273	          0.00353996	          0.02258000	          0.00583815	          0.00583815	          0.00583815	          0.22665209	          0.90926209	          0.84746343	          0.84746343	          0.84746343	          0.03949554	          0.07057721	          0.03876051	          0.03876051	          0.03876051	          0.00319750	          0.14764057	          0.15513103	          0.15513103	          0.15513103	          0.00272263	          0.08465050	          0.05538866	          0.05538866	          0.05538866	          0.25323029	          0.49308848	          0.55381078	          0.55381078	          0.55381078	          0.07173132	          0.26332315	          0.27461660	          0.27461660	          0.27461660	          0.00839892	          0.05072596	          0.06235388	          0.06235388	          0.06235388	
          1.01574087	          0.00191679	          0.15087420	          0.11937753	          0.11937753	          0.11937753	          0.18621998	          0.16636488	          0.14601545	          0.14601545	          0.14601545	          0.00329666	          0.02230178	          0.00565465	          0.00565465	          0.00565465	          0.24579901	          0.90343965	          0.84634066	          0.84634066	          0.84634066	          0.01637845	          0.07036693	          0.03868523	          0.03868523	          0.03868523	          0.01357015	          0.14615230	          0.15283631	          0.15283631	          0.15283631	          0.01731032	          0.08523343	          0.05574049	          0.05574049	          0.05574049	          0.48274469	          0.48745565	          0.55385971	          0.55385971	          0.55385971	          0.08799079	          0.26393027	          0.27201223	          0.27201223	          0.27201223	          0.00388770	          0.04978172	          0.06071720	          0.06071720	          0.06071720	
          1.01666677	          0.09653688	          0.15037337	          0.11938762	          0.11938762	          0.11938762	          0.18995746	          0.16354391	          0.14474712	          0.14474712	          0.14474712	          0.00069693	          0.02201812	          0.00547458	          0.00547458	          0.00547458	          0.28230777	          0.89756710	          0.84520370	          0.84520370	          0.84520370	          0.00931340	          0.07011135	          0.03861133	          0.03861133	          0.03861133	          0.02557604	          0.14467006	          0.15055308	          0.15055308	          0.15055308	          0.00904313	          0.08581497	          0.05611551	          0.05611551	          0.05611551	          0.33344313	          0.48189477	          0.55389577	          0.55389577	          0.55389577	          0.24752741	          0.26443914	          0.26941428	          0.26941428	          0.26941428	          0.00360123	          0.04887608	          0.05908944	          0.05908944	          0.05908944	
          1.01759267	          0.07353051	          0.14982602	          0.11938564	          0.11938564	          0.11938564	          0.12649172	          0.16075055	          0.14348778	          0.14348778	          0.14348778	          0.01594141	          0.02172924	          0.00529794	          0.00529794	          0.00529794	          0.18822272	          0.89165832	          0.84405214	          0.84405214	          0.84405214	          0.03601067	          0.06981057	          0.03853877	          0.03853877	          0.03853877	          0.02522432	          0.14319487	          0.14828126	          0.14828126	          0.14828126	          0.02618851	          0.08639272	          0.05651372	          0.05651372	          0.05651372	          0.34469854	          0.47641288	          0.55391878	          0.55391878	          0.55391878	          0.30996640	          0.26484328	          0.26682264	          0.26682264	          0.26682264	          0.00491178	          0.04801043	          0.05747059	          0.05747059	          0.05747059	
          1.01851869	          0.02189772	          0.14923006	          0.11937157	          0.11937157	          0.11937157	          0.02111482	          0.15798754	          0.14223735	          0.14223735	          0.14223735	          0.02157900	          0.02143537	          0.00512471	          0.00512471	          0.00512471	          0.15670859	          0.88572726	          0.84288603	          0.84288603	          0.84288603	          0.04266432	          0.06946481	          0.03846756	          0.03846756	          0.03846756	          0.00302713	          0.14172768	          0.14602083	          0.14602083	          0.14602083	          0.04424051	          0.08696425	          0.05693516	          0.05693516	          0.05693516	          0.20837739	          0.47101676	          0.55392855	          0.55392855	          0.55392855	          0.29643355	          0.26513665	          0.26423696	          0.26423696	          0.26423696	          0.01515911	          0.04718602	          0.05586058	          0.05586058	          0.05586058	
